<mxfile host="app.diagrams.net" modified="2023-12-12T14:31:39.007Z" agent="Mozilla/5.0 (Windows NT 10.0; Win64; x64) AppleWebKit/537.36 (KHTML, like Gecko) Chrome/118.0.0.0 Safari/537.36 OPR/104.0.0.0" etag="QE-av9pk_nIsjk2Fwucz" version="22.1.7" type="github">
  <diagram name="Page-1" id="86kb8rs1A8f2DlFfdRyC">
    <mxGraphModel dx="5680" dy="2254" grid="1" gridSize="10" guides="1" tooltips="1" connect="1" arrows="1" fold="1" page="1" pageScale="1" pageWidth="850" pageHeight="1100" math="0" shadow="0">
      <root>
        <mxCell id="0" />
        <mxCell id="1" parent="0" />
        <mxCell id="gHR3AivbkHcA9RJLR__C-8" style="edgeStyle=orthogonalEdgeStyle;rounded=0;orthogonalLoop=1;jettySize=auto;html=1;exitX=1;exitY=0;exitDx=0;exitDy=0;entryX=1;entryY=1;entryDx=0;entryDy=0;" edge="1" parent="1" source="gHR3AivbkHcA9RJLR__C-6" target="gHR3AivbkHcA9RJLR__C-4">
          <mxGeometry relative="1" as="geometry" />
        </mxCell>
        <mxCell id="gHR3AivbkHcA9RJLR__C-6" value="" style="shape=process;whiteSpace=wrap;html=1;backgroundOutline=1;rotation=90;size=0.2543859649122807;" vertex="1" parent="1">
          <mxGeometry x="143.75" y="16.25" width="285" height="382.5" as="geometry" />
        </mxCell>
        <mxCell id="gHR3AivbkHcA9RJLR__C-4" value="&lt;h1&gt;&lt;span style=&quot;background-color: initial;&quot;&gt;Block&lt;/span&gt;&lt;/h1&gt;&lt;div&gt;&lt;span style=&quot;background-color: initial;&quot;&gt;&lt;br&gt;&lt;/span&gt;&lt;/div&gt;&lt;h1&gt;&lt;font size=&quot;3&quot;&gt;&lt;span style=&quot;font-weight: 400;&quot;&gt;public int blast_resistance;&lt;/span&gt;&lt;/font&gt;&lt;/h1&gt;&lt;div&gt;&lt;font size=&quot;3&quot;&gt;&lt;span style=&quot;font-weight: 400;&quot;&gt;public int mining_time;&lt;/span&gt;&lt;/font&gt;&lt;/div&gt;&lt;div&gt;&lt;font size=&quot;3&quot;&gt;&lt;span style=&quot;font-weight: 400;&quot;&gt;&lt;br&gt;&lt;/span&gt;&lt;/font&gt;&lt;/div&gt;&lt;div&gt;&lt;font size=&quot;3&quot;&gt;&lt;span style=&quot;font-weight: 400;&quot;&gt;&lt;br&gt;&lt;/span&gt;&lt;/font&gt;&lt;/div&gt;&lt;div&gt;&lt;font size=&quot;3&quot;&gt;&lt;span style=&quot;font-weight: 400;&quot;&gt;&lt;br&gt;&lt;/span&gt;&lt;/font&gt;&lt;/div&gt;&lt;div&gt;&lt;font size=&quot;3&quot;&gt;&lt;span style=&quot;font-weight: 400;&quot;&gt;&lt;br&gt;&lt;/span&gt;&lt;/font&gt;&lt;/div&gt;&lt;div&gt;&lt;font size=&quot;3&quot;&gt;&lt;span style=&quot;font-weight: 400;&quot;&gt;Destroy();&lt;/span&gt;&lt;/font&gt;&lt;/div&gt;&lt;div&gt;&lt;font size=&quot;3&quot;&gt;&lt;span style=&quot;font-weight: 400;&quot;&gt;Place();&lt;/span&gt;&lt;/font&gt;&lt;/div&gt;" style="text;html=1;strokeColor=none;fillColor=none;spacing=5;spacingTop=-20;whiteSpace=wrap;overflow=hidden;rounded=0;" vertex="1" parent="1">
          <mxGeometry x="100" y="70" width="370" height="270" as="geometry" />
        </mxCell>
        <mxCell id="gHR3AivbkHcA9RJLR__C-9" style="edgeStyle=orthogonalEdgeStyle;rounded=0;orthogonalLoop=1;jettySize=auto;html=1;exitX=1;exitY=0;exitDx=0;exitDy=0;entryX=1;entryY=1;entryDx=0;entryDy=0;" edge="1" parent="1" source="gHR3AivbkHcA9RJLR__C-10" target="gHR3AivbkHcA9RJLR__C-11">
          <mxGeometry relative="1" as="geometry" />
        </mxCell>
        <mxCell id="gHR3AivbkHcA9RJLR__C-10" value="" style="shape=process;whiteSpace=wrap;html=1;backgroundOutline=1;rotation=90;size=0.2543859649122807;" vertex="1" parent="1">
          <mxGeometry x="-1037.25" y="482.5" width="285" height="382.5" as="geometry" />
        </mxCell>
        <mxCell id="gHR3AivbkHcA9RJLR__C-28" style="edgeStyle=orthogonalEdgeStyle;rounded=0;orthogonalLoop=1;jettySize=auto;html=1;exitX=0.5;exitY=0;exitDx=0;exitDy=0;entryX=0;entryY=0.5;entryDx=0;entryDy=0;" edge="1" parent="1" source="gHR3AivbkHcA9RJLR__C-11" target="gHR3AivbkHcA9RJLR__C-4">
          <mxGeometry relative="1" as="geometry">
            <mxPoint x="-310" y="190" as="targetPoint" />
          </mxGeometry>
        </mxCell>
        <mxCell id="gHR3AivbkHcA9RJLR__C-11" value="&lt;h1&gt;Pickaxe&lt;/h1&gt;&lt;div&gt;&lt;span style=&quot;background-color: initial;&quot;&gt;&lt;br&gt;&lt;/span&gt;&lt;/div&gt;&lt;h1&gt;&lt;span style=&quot;font-weight: 400; font-size: medium; background-color: initial;&quot;&gt;field: type&lt;/span&gt;&lt;/h1&gt;&lt;h1&gt;&lt;span style=&quot;font-weight: 400; font-size: medium; background-color: initial;&quot;&gt;public int mining_time;&lt;/span&gt;&lt;br&gt;&lt;/h1&gt;&lt;div&gt;&lt;font size=&quot;3&quot;&gt;&lt;span style=&quot;font-weight: 400;&quot;&gt;&lt;br&gt;&lt;/span&gt;&lt;/font&gt;&lt;/div&gt;&lt;div&gt;&lt;br&gt;&lt;/div&gt;&lt;div&gt;&lt;br&gt;&lt;/div&gt;&lt;div&gt;&lt;font size=&quot;3&quot;&gt;&lt;span style=&quot;font-weight: 400;&quot;&gt;override Destroy(); void&lt;/span&gt;&lt;/font&gt;&lt;/div&gt;&lt;div&gt;&lt;font size=&quot;3&quot;&gt;&lt;span style=&quot;font-weight: 400;&quot;&gt;override Place(); void&lt;/span&gt;&lt;/font&gt;&lt;/div&gt;" style="text;html=1;strokeColor=none;fillColor=none;spacing=5;spacingTop=-20;whiteSpace=wrap;overflow=hidden;rounded=0;" vertex="1" parent="1">
          <mxGeometry x="-1082" y="536.25" width="370" height="270" as="geometry" />
        </mxCell>
        <mxCell id="gHR3AivbkHcA9RJLR__C-18" style="edgeStyle=orthogonalEdgeStyle;rounded=0;orthogonalLoop=1;jettySize=auto;html=1;exitX=1;exitY=0;exitDx=0;exitDy=0;entryX=1;entryY=1;entryDx=0;entryDy=0;" edge="1" parent="1">
          <mxGeometry relative="1" as="geometry">
            <mxPoint x="470" y="831.25" as="sourcePoint" />
            <mxPoint x="462.5" y="821.25" as="targetPoint" />
          </mxGeometry>
        </mxCell>
        <mxCell id="gHR3AivbkHcA9RJLR__C-19" value="" style="shape=process;whiteSpace=wrap;html=1;backgroundOutline=1;rotation=90;size=0.2543859649122807;" vertex="1" parent="1">
          <mxGeometry x="142.5" y="497.5" width="285" height="382.5" as="geometry" />
        </mxCell>
        <mxCell id="gHR3AivbkHcA9RJLR__C-27" style="edgeStyle=orthogonalEdgeStyle;rounded=0;orthogonalLoop=1;jettySize=auto;html=1;exitX=0.5;exitY=0;exitDx=0;exitDy=0;entryX=1;entryY=0.5;entryDx=0;entryDy=0;" edge="1" parent="1" source="gHR3AivbkHcA9RJLR__C-20" target="gHR3AivbkHcA9RJLR__C-6">
          <mxGeometry relative="1" as="geometry" />
        </mxCell>
        <mxCell id="gHR3AivbkHcA9RJLR__C-20" value="&lt;h1&gt;Axe/Shovel&lt;/h1&gt;&lt;div&gt;&lt;span style=&quot;background-color: initial;&quot;&gt;&lt;br&gt;&lt;/span&gt;&lt;/div&gt;&lt;h1&gt;&lt;font size=&quot;3&quot;&gt;&lt;span style=&quot;font-weight: 400;&quot;&gt;field: type&lt;/span&gt;&lt;/font&gt;&lt;/h1&gt;&lt;div&gt;&lt;font size=&quot;3&quot;&gt;&lt;span style=&quot;font-weight: 400;&quot;&gt;&lt;br&gt;&lt;/span&gt;&lt;/font&gt;&lt;/div&gt;&lt;div&gt;&lt;font size=&quot;3&quot;&gt;&lt;span style=&quot;font-weight: 400;&quot;&gt;&lt;br&gt;&lt;/span&gt;&lt;/font&gt;&lt;/div&gt;&lt;div&gt;&lt;font size=&quot;3&quot;&gt;&lt;span style=&quot;font-weight: 400;&quot;&gt;&lt;br&gt;&lt;/span&gt;&lt;/font&gt;&lt;/div&gt;&lt;div&gt;&lt;font size=&quot;3&quot;&gt;&lt;span style=&quot;font-weight: 400;&quot;&gt;override Destroy(); void&lt;/span&gt;&lt;/font&gt;&lt;/div&gt;&lt;div&gt;&lt;font size=&quot;3&quot;&gt;&lt;span style=&quot;font-weight: 400;&quot;&gt;override Place(); void&lt;/span&gt;&lt;/font&gt;&lt;/div&gt;" style="text;html=1;strokeColor=none;fillColor=none;spacing=5;spacingTop=-20;whiteSpace=wrap;overflow=hidden;rounded=0;" vertex="1" parent="1">
          <mxGeometry x="100" y="553.75" width="370" height="270" as="geometry" />
        </mxCell>
        <mxCell id="gHR3AivbkHcA9RJLR__C-21" style="edgeStyle=orthogonalEdgeStyle;rounded=0;orthogonalLoop=1;jettySize=auto;html=1;exitX=1;exitY=0;exitDx=0;exitDy=0;entryX=1;entryY=1;entryDx=0;entryDy=0;" edge="1" parent="1" source="gHR3AivbkHcA9RJLR__C-22" target="gHR3AivbkHcA9RJLR__C-23">
          <mxGeometry relative="1" as="geometry" />
        </mxCell>
        <mxCell id="gHR3AivbkHcA9RJLR__C-22" value="" style="shape=process;whiteSpace=wrap;html=1;backgroundOutline=1;rotation=90;size=0.2543859649122807;" vertex="1" parent="1">
          <mxGeometry x="1573.75" y="510" width="285" height="382.5" as="geometry" />
        </mxCell>
        <mxCell id="gHR3AivbkHcA9RJLR__C-54" style="edgeStyle=orthogonalEdgeStyle;rounded=0;orthogonalLoop=1;jettySize=auto;html=1;entryX=1;entryY=0.5;entryDx=0;entryDy=0;" edge="1" parent="1" source="gHR3AivbkHcA9RJLR__C-23" target="gHR3AivbkHcA9RJLR__C-4">
          <mxGeometry relative="1" as="geometry">
            <Array as="points">
              <mxPoint x="1715" y="205" />
            </Array>
          </mxGeometry>
        </mxCell>
        <mxCell id="gHR3AivbkHcA9RJLR__C-23" value="&lt;h1&gt;Hand&lt;/h1&gt;&lt;div&gt;&lt;span style=&quot;background-color: initial;&quot;&gt;&lt;br&gt;&lt;/span&gt;&lt;/div&gt;&lt;h1&gt;&lt;font size=&quot;3&quot;&gt;&lt;span style=&quot;font-weight: 400;&quot;&gt;field: type&lt;/span&gt;&lt;/font&gt;&lt;/h1&gt;&lt;div&gt;&lt;font size=&quot;3&quot;&gt;&lt;span style=&quot;font-weight: 400;&quot;&gt;&lt;br&gt;&lt;/span&gt;&lt;/font&gt;&lt;/div&gt;&lt;div&gt;&lt;font size=&quot;3&quot;&gt;&lt;span style=&quot;font-weight: 400;&quot;&gt;&lt;br&gt;&lt;/span&gt;&lt;/font&gt;&lt;/div&gt;&lt;div&gt;&lt;font size=&quot;3&quot;&gt;&lt;span style=&quot;font-weight: 400;&quot;&gt;&lt;br&gt;&lt;/span&gt;&lt;/font&gt;&lt;/div&gt;&lt;div&gt;&lt;font size=&quot;3&quot;&gt;&lt;span style=&quot;font-weight: 400;&quot;&gt;&lt;br&gt;&lt;/span&gt;&lt;/font&gt;&lt;/div&gt;&lt;div&gt;&lt;font size=&quot;3&quot;&gt;&lt;span style=&quot;font-weight: 400;&quot;&gt;&lt;br&gt;&lt;/span&gt;&lt;/font&gt;&lt;/div&gt;&lt;div&gt;&lt;font size=&quot;3&quot;&gt;&lt;span style=&quot;font-weight: 400;&quot;&gt;override Destroy(); void&amp;nbsp;&lt;/span&gt;&lt;/font&gt;&lt;/div&gt;&lt;div&gt;&lt;font size=&quot;3&quot;&gt;&lt;span style=&quot;font-weight: 400;&quot;&gt;override Place(); void&lt;/span&gt;&lt;/font&gt;&lt;/div&gt;" style="text;html=1;strokeColor=none;fillColor=none;spacing=5;spacingTop=-20;whiteSpace=wrap;overflow=hidden;rounded=0;" vertex="1" parent="1">
          <mxGeometry x="1530" y="563.75" width="370" height="270" as="geometry" />
        </mxCell>
        <mxCell id="gHR3AivbkHcA9RJLR__C-31" style="edgeStyle=orthogonalEdgeStyle;rounded=0;orthogonalLoop=1;jettySize=auto;html=1;exitX=1;exitY=0;exitDx=0;exitDy=0;entryX=1;entryY=1;entryDx=0;entryDy=0;" edge="1" parent="1" source="gHR3AivbkHcA9RJLR__C-32" target="gHR3AivbkHcA9RJLR__C-33">
          <mxGeometry relative="1" as="geometry" />
        </mxCell>
        <mxCell id="gHR3AivbkHcA9RJLR__C-32" value="" style="shape=process;whiteSpace=wrap;html=1;backgroundOutline=1;rotation=90;size=0.2543859649122807;" vertex="1" parent="1">
          <mxGeometry x="-1445.25" y="950" width="285" height="382.5" as="geometry" />
        </mxCell>
        <mxCell id="gHR3AivbkHcA9RJLR__C-63" style="edgeStyle=orthogonalEdgeStyle;rounded=0;orthogonalLoop=1;jettySize=auto;html=1;entryX=0.5;entryY=1;entryDx=0;entryDy=0;" edge="1" parent="1" source="gHR3AivbkHcA9RJLR__C-33" target="gHR3AivbkHcA9RJLR__C-11">
          <mxGeometry relative="1" as="geometry" />
        </mxCell>
        <mxCell id="gHR3AivbkHcA9RJLR__C-33" value="&lt;h1&gt;Stone&lt;/h1&gt;&lt;div&gt;&lt;br&gt;&lt;/div&gt;&lt;h1&gt;&lt;span style=&quot;font-weight: 400; font-size: medium; background-color: initial;&quot;&gt;field: type&lt;/span&gt;&lt;/h1&gt;&lt;div&gt;&lt;font size=&quot;3&quot;&gt;public string pickaxe_level = &quot;wooden&quot;;&lt;/font&gt;&lt;/div&gt;&lt;div&gt;&lt;br&gt;&lt;/div&gt;&lt;div&gt;&lt;br&gt;&lt;/div&gt;&lt;div&gt;&lt;br&gt;&lt;/div&gt;&lt;div&gt;&lt;br&gt;&lt;/div&gt;&lt;div&gt;&lt;br&gt;&lt;/div&gt;&lt;div&gt;&lt;font size=&quot;3&quot;&gt;&lt;span style=&quot;font-weight: 400;&quot;&gt;override Destroy(); void&lt;/span&gt;&lt;/font&gt;&lt;/div&gt;&lt;div&gt;&lt;font size=&quot;3&quot;&gt;&lt;span style=&quot;font-weight: 400;&quot;&gt;override Place(); void&lt;/span&gt;&lt;/font&gt;&lt;/div&gt;" style="text;html=1;strokeColor=none;fillColor=none;spacing=5;spacingTop=-20;whiteSpace=wrap;overflow=hidden;rounded=0;" vertex="1" parent="1">
          <mxGeometry x="-1490" y="1003.75" width="370" height="270" as="geometry" />
        </mxCell>
        <mxCell id="gHR3AivbkHcA9RJLR__C-34" style="edgeStyle=orthogonalEdgeStyle;rounded=0;orthogonalLoop=1;jettySize=auto;html=1;exitX=1;exitY=0;exitDx=0;exitDy=0;entryX=1;entryY=1;entryDx=0;entryDy=0;" edge="1" parent="1" source="gHR3AivbkHcA9RJLR__C-35" target="gHR3AivbkHcA9RJLR__C-36">
          <mxGeometry relative="1" as="geometry" />
        </mxCell>
        <mxCell id="gHR3AivbkHcA9RJLR__C-35" value="" style="shape=process;whiteSpace=wrap;html=1;backgroundOutline=1;rotation=90;size=0.2543859649122807;" vertex="1" parent="1">
          <mxGeometry x="534.75" y="955" width="285" height="382.5" as="geometry" />
        </mxCell>
        <mxCell id="gHR3AivbkHcA9RJLR__C-62" style="edgeStyle=orthogonalEdgeStyle;rounded=0;orthogonalLoop=1;jettySize=auto;html=1;entryX=0.5;entryY=1;entryDx=0;entryDy=0;" edge="1" parent="1" source="gHR3AivbkHcA9RJLR__C-36" target="gHR3AivbkHcA9RJLR__C-20">
          <mxGeometry relative="1" as="geometry" />
        </mxCell>
        <mxCell id="gHR3AivbkHcA9RJLR__C-36" value="&lt;h1&gt;Grass_Block&lt;/h1&gt;&lt;div&gt;&lt;span style=&quot;background-color: initial;&quot;&gt;&lt;br&gt;&lt;/span&gt;&lt;/div&gt;&lt;h1&gt;&lt;span style=&quot;font-weight: 400; font-size: medium; background-color: initial;&quot;&gt;field: type&lt;/span&gt;&lt;/h1&gt;&lt;div&gt;&lt;span style=&quot;font-size: medium; background-color: initial;&quot;&gt;&lt;b&gt;&lt;br&gt;&lt;/b&gt;&lt;/span&gt;&lt;/div&gt;&lt;div&gt;&lt;span style=&quot;font-weight: 400; background-color: initial;&quot;&gt;&lt;font style=&quot;font-size: 16px;&quot;&gt;&lt;br&gt;&lt;/font&gt;&lt;/span&gt;&lt;/div&gt;&lt;div&gt;&lt;font size=&quot;3&quot;&gt;public string tool = &quot;Axe&quot;;&lt;/font&gt;&lt;span style=&quot;font-weight: 400; font-size: medium; background-color: initial;&quot;&gt;&lt;br&gt;&lt;/span&gt;&lt;/div&gt;&lt;div&gt;&lt;span style=&quot;font-weight: 400; font-size: medium; background-color: initial;&quot;&gt;&lt;br&gt;&lt;/span&gt;&lt;/div&gt;&lt;div&gt;&lt;br&gt;&lt;/div&gt;&lt;div&gt;&lt;br&gt;&lt;/div&gt;&lt;div&gt;&lt;font size=&quot;3&quot;&gt;&lt;span style=&quot;font-weight: 400;&quot;&gt;override Destroy(); void&lt;/span&gt;&lt;/font&gt;&lt;/div&gt;&lt;div&gt;&lt;font size=&quot;3&quot;&gt;&lt;span style=&quot;font-weight: 400;&quot;&gt;override Place(); void&lt;/span&gt;&lt;/font&gt;&lt;/div&gt;" style="text;html=1;strokeColor=none;fillColor=none;spacing=5;spacingTop=-20;whiteSpace=wrap;overflow=hidden;rounded=0;" vertex="1" parent="1">
          <mxGeometry x="490" y="1008.75" width="370" height="270" as="geometry" />
        </mxCell>
        <mxCell id="gHR3AivbkHcA9RJLR__C-38" style="edgeStyle=orthogonalEdgeStyle;rounded=0;orthogonalLoop=1;jettySize=auto;html=1;exitX=1;exitY=0;exitDx=0;exitDy=0;entryX=1;entryY=1;entryDx=0;entryDy=0;" edge="1" parent="1" source="gHR3AivbkHcA9RJLR__C-39" target="gHR3AivbkHcA9RJLR__C-40">
          <mxGeometry relative="1" as="geometry" />
        </mxCell>
        <mxCell id="gHR3AivbkHcA9RJLR__C-39" value="" style="shape=process;whiteSpace=wrap;html=1;backgroundOutline=1;rotation=90;size=0.2543859649122807;" vertex="1" parent="1">
          <mxGeometry x="2022.5" y="930" width="285" height="382.5" as="geometry" />
        </mxCell>
        <mxCell id="gHR3AivbkHcA9RJLR__C-59" style="edgeStyle=orthogonalEdgeStyle;rounded=0;orthogonalLoop=1;jettySize=auto;html=1;entryX=0.5;entryY=1;entryDx=0;entryDy=0;" edge="1" parent="1" source="gHR3AivbkHcA9RJLR__C-40" target="gHR3AivbkHcA9RJLR__C-23">
          <mxGeometry relative="1" as="geometry" />
        </mxCell>
        <mxCell id="gHR3AivbkHcA9RJLR__C-40" value="&lt;h1&gt;Slime_Block&lt;/h1&gt;&lt;div&gt;&lt;br&gt;&lt;/div&gt;&lt;h1&gt;&lt;span style=&quot;font-weight: 400; font-size: medium; background-color: initial;&quot;&gt;field: type&lt;/span&gt;&lt;/h1&gt;&lt;div&gt;&lt;span style=&quot;font-weight: 400; font-size: medium; background-color: initial;&quot;&gt;public int bounciness = 0.25&lt;/span&gt;&lt;/div&gt;&lt;div&gt;&lt;br&gt;&lt;/div&gt;&lt;div&gt;&lt;br&gt;&lt;/div&gt;&lt;div&gt;&lt;br&gt;&lt;/div&gt;&lt;div&gt;&lt;br&gt;&lt;/div&gt;&lt;div&gt;&lt;br&gt;&lt;/div&gt;&lt;div&gt;&lt;font size=&quot;3&quot;&gt;&lt;span style=&quot;font-weight: 400;&quot;&gt;override Destroy(); void&lt;/span&gt;&lt;/font&gt;&lt;/div&gt;&lt;div&gt;&lt;font size=&quot;3&quot;&gt;&lt;span style=&quot;font-weight: 400;&quot;&gt;override Place(); void&lt;/span&gt;&lt;/font&gt;&lt;/div&gt;" style="text;html=1;strokeColor=none;fillColor=none;spacing=5;spacingTop=-20;whiteSpace=wrap;overflow=hidden;rounded=0;" vertex="1" parent="1">
          <mxGeometry x="1980" y="990" width="370" height="270" as="geometry" />
        </mxCell>
        <mxCell id="gHR3AivbkHcA9RJLR__C-44" style="edgeStyle=orthogonalEdgeStyle;rounded=0;orthogonalLoop=1;jettySize=auto;html=1;exitX=1;exitY=0;exitDx=0;exitDy=0;entryX=1;entryY=1;entryDx=0;entryDy=0;" edge="1" parent="1" source="gHR3AivbkHcA9RJLR__C-45" target="gHR3AivbkHcA9RJLR__C-46">
          <mxGeometry relative="1" as="geometry" />
        </mxCell>
        <mxCell id="gHR3AivbkHcA9RJLR__C-45" value="" style="shape=process;whiteSpace=wrap;html=1;backgroundOutline=1;rotation=90;size=0.2543859649122807;" vertex="1" parent="1">
          <mxGeometry x="-697.5" y="955" width="285" height="382.5" as="geometry" />
        </mxCell>
        <mxCell id="gHR3AivbkHcA9RJLR__C-64" style="edgeStyle=orthogonalEdgeStyle;rounded=0;orthogonalLoop=1;jettySize=auto;html=1;" edge="1" parent="1" source="gHR3AivbkHcA9RJLR__C-46">
          <mxGeometry relative="1" as="geometry">
            <mxPoint x="-900" y="810" as="targetPoint" />
          </mxGeometry>
        </mxCell>
        <mxCell id="gHR3AivbkHcA9RJLR__C-46" value="&lt;h1&gt;Iron_Ore&lt;/h1&gt;&lt;div&gt;&lt;br&gt;&lt;/div&gt;&lt;h1&gt;&lt;span style=&quot;font-weight: 400; font-size: medium; background-color: initial;&quot;&gt;field: type&lt;/span&gt;&lt;/h1&gt;&lt;h1&gt;&lt;/h1&gt;&lt;font size=&quot;3&quot;&gt;public string pickaxe_level = &quot;stone&quot;;&lt;/font&gt;&lt;div&gt;&lt;br&gt;&lt;/div&gt;&lt;div&gt;&lt;br&gt;&lt;/div&gt;&lt;div&gt;&lt;br&gt;&lt;/div&gt;&lt;div&gt;&lt;br&gt;&lt;/div&gt;&lt;div&gt;&lt;br&gt;&lt;/div&gt;&lt;div&gt;&lt;font size=&quot;3&quot;&gt;&lt;span style=&quot;font-weight: 400;&quot;&gt;override Destroy(); void&lt;/span&gt;&lt;/font&gt;&lt;/div&gt;&lt;div&gt;&lt;font size=&quot;3&quot;&gt;&lt;span style=&quot;font-weight: 400;&quot;&gt;override Place(); void&lt;/span&gt;&lt;/font&gt;&lt;/div&gt;" style="text;html=1;strokeColor=none;fillColor=none;spacing=5;spacingTop=-20;whiteSpace=wrap;overflow=hidden;rounded=0;" vertex="1" parent="1">
          <mxGeometry x="-740" y="1011.25" width="370" height="270" as="geometry" />
        </mxCell>
        <mxCell id="gHR3AivbkHcA9RJLR__C-49" style="edgeStyle=orthogonalEdgeStyle;rounded=0;orthogonalLoop=1;jettySize=auto;html=1;exitX=1;exitY=0;exitDx=0;exitDy=0;entryX=1;entryY=1;entryDx=0;entryDy=0;" edge="1" parent="1" source="gHR3AivbkHcA9RJLR__C-50" target="gHR3AivbkHcA9RJLR__C-51">
          <mxGeometry relative="1" as="geometry" />
        </mxCell>
        <mxCell id="gHR3AivbkHcA9RJLR__C-50" value="" style="shape=process;whiteSpace=wrap;html=1;backgroundOutline=1;rotation=90;size=0.2543859649122807;" vertex="1" parent="1">
          <mxGeometry x="-165.25" y="955" width="285" height="382.5" as="geometry" />
        </mxCell>
        <mxCell id="gHR3AivbkHcA9RJLR__C-60" style="edgeStyle=orthogonalEdgeStyle;rounded=0;orthogonalLoop=1;jettySize=auto;html=1;exitX=1;exitY=0.5;exitDx=0;exitDy=0;entryX=1;entryY=0.5;entryDx=0;entryDy=0;" edge="1" parent="1" source="gHR3AivbkHcA9RJLR__C-51" target="gHR3AivbkHcA9RJLR__C-19">
          <mxGeometry relative="1" as="geometry" />
        </mxCell>
        <mxCell id="gHR3AivbkHcA9RJLR__C-51" value="&lt;h1&gt;Wooden_Log&lt;/h1&gt;&lt;div&gt;&lt;br&gt;&lt;/div&gt;&lt;h1&gt;&lt;span style=&quot;font-weight: 400; font-size: medium; background-color: initial;&quot;&gt;field: type&lt;/span&gt;&lt;/h1&gt;&lt;div&gt;&lt;font size=&quot;3&quot;&gt;public string tool = &quot;Axe&quot;;&lt;/font&gt;&lt;/div&gt;&lt;div&gt;&lt;span style=&quot;font-weight: 400; font-size: medium; background-color: initial;&quot;&gt;&lt;br&gt;&lt;/span&gt;&lt;/div&gt;&lt;div&gt;&lt;span style=&quot;font-weight: 400; font-size: medium; background-color: initial;&quot;&gt;&lt;br&gt;&lt;/span&gt;&lt;/div&gt;&lt;div&gt;&lt;br&gt;&lt;/div&gt;&lt;div&gt;&lt;br&gt;&lt;/div&gt;&lt;div&gt;&lt;font size=&quot;3&quot;&gt;&lt;span style=&quot;font-weight: 400;&quot;&gt;override Destroy(); void&lt;/span&gt;&lt;/font&gt;&lt;/div&gt;&lt;div&gt;&lt;font size=&quot;3&quot;&gt;&lt;span style=&quot;font-weight: 400;&quot;&gt;override Place(); void&lt;/span&gt;&lt;/font&gt;&lt;/div&gt;" style="text;html=1;strokeColor=none;fillColor=none;spacing=5;spacingTop=-20;whiteSpace=wrap;overflow=hidden;rounded=0;" vertex="1" parent="1">
          <mxGeometry x="-210" y="1010" width="370" height="268.75" as="geometry" />
        </mxCell>
        <mxCell id="gHR3AivbkHcA9RJLR__C-55" style="edgeStyle=orthogonalEdgeStyle;rounded=0;orthogonalLoop=1;jettySize=auto;html=1;exitX=1;exitY=0;exitDx=0;exitDy=0;entryX=1;entryY=1;entryDx=0;entryDy=0;" edge="1" parent="1" source="gHR3AivbkHcA9RJLR__C-56" target="gHR3AivbkHcA9RJLR__C-57">
          <mxGeometry relative="1" as="geometry" />
        </mxCell>
        <mxCell id="gHR3AivbkHcA9RJLR__C-56" value="" style="shape=process;whiteSpace=wrap;html=1;backgroundOutline=1;rotation=90;size=0.2543859649122807;" vertex="1" parent="1">
          <mxGeometry x="1196.25" y="930" width="285" height="382.5" as="geometry" />
        </mxCell>
        <mxCell id="gHR3AivbkHcA9RJLR__C-58" style="edgeStyle=orthogonalEdgeStyle;rounded=0;orthogonalLoop=1;jettySize=auto;html=1;entryX=0.5;entryY=1;entryDx=0;entryDy=0;" edge="1" parent="1" source="gHR3AivbkHcA9RJLR__C-57" target="gHR3AivbkHcA9RJLR__C-23">
          <mxGeometry relative="1" as="geometry" />
        </mxCell>
        <mxCell id="gHR3AivbkHcA9RJLR__C-57" value="&lt;h1&gt;TNT&lt;/h1&gt;&lt;div&gt;&lt;br&gt;&lt;/div&gt;&lt;h1&gt;&lt;span style=&quot;font-weight: 400; font-size: medium; background-color: initial;&quot;&gt;field: type&lt;/span&gt;&lt;/h1&gt;&lt;div&gt;&lt;span style=&quot;font-weight: 400; font-size: medium; background-color: initial;&quot;&gt;public int explosion_delay = 100;&lt;/span&gt;&lt;/div&gt;&lt;div&gt;&lt;span style=&quot;font-weight: 400; font-size: medium; background-color: initial;&quot;&gt;&lt;br&gt;&lt;/span&gt;&lt;/div&gt;&lt;div&gt;&lt;br&gt;&lt;/div&gt;&lt;div&gt;&lt;br&gt;&lt;/div&gt;&lt;div&gt;&lt;br&gt;&lt;/div&gt;&lt;div&gt;&lt;font size=&quot;3&quot;&gt;&lt;span style=&quot;font-weight: 400;&quot;&gt;override Destroy(); void&lt;/span&gt;&lt;/font&gt;&lt;/div&gt;&lt;div&gt;&lt;font size=&quot;3&quot;&gt;&lt;span style=&quot;font-weight: 400;&quot;&gt;override Place(); void&lt;/span&gt;&lt;/font&gt;&lt;/div&gt;" style="text;html=1;strokeColor=none;fillColor=none;spacing=5;spacingTop=-20;whiteSpace=wrap;overflow=hidden;rounded=0;" vertex="1" parent="1">
          <mxGeometry x="1153.75" y="990" width="370" height="270" as="geometry" />
        </mxCell>
      </root>
    </mxGraphModel>
  </diagram>
</mxfile>
